<?xml version="1.0" standalone="no"?>
<!DOCTYPE svg PUBLIC "-//W3C//DTD SVG 20010904//EN"
 "http://www.w3.org/TR/2001/REC-SVG-20010904/DTD/svg10.dtd">
<svg version="1.0" xmlns="http://www.w3.org/2000/svg"
 width="16.000000pt" height="16.000000pt" viewBox="0 0 16.000000 16.000000"
 preserveAspectRatio="xMidYMid meet">
<metadata>
Created by potrace 1.11, written by Peter Selinger 2001-2013
</metadata>
<g transform="translate(0.000000,16.000000) scale(0.006154,-0.006154)"
fill="#000000" stroke="none">
<path d="M1150 2593 c-168 -27 -287 -63 -410 -121 -288 -136 -528 -392 -645
-687 -31 -79 -65 -193 -72 -245 -3 -19 -9 -55 -14 -80 -9 -48 -5 -318 5 -360
3 -14 9 -38 11 -55 12 -66 45 -175 79 -254 155 -367 480 -648 867 -749 120
-32 173 -37 349 -36 129 1 185 6 256 22 368 85 670 307 852 625 27 48 60 113
72 145 12 31 26 66 30 77 16 37 39 130 54 215 31 181 10 446 -49 620 -61 179
-182 375 -316 510 -185 187 -451 322 -724 367 -40 6 -314 11 -345 6z m275
-247 c81 -8 102 -13 181 -37 342 -104 611 -380 709 -727 158 -558 -166 -1135
-730 -1298 -132 -39 -345 -50 -465 -25 -30 6 -64 13 -75 15 -11 2 -54 16 -95
31 -354 129 -609 422 -685 791 -16 77 -24 300 -12 340 3 10 9 39 12 62 24 170
141 394 277 533 166 169 406 291 618 314 36 4 66 8 67 9 4 3 141 -2 198 -8z"/>
<path d="M1257 2334 c-1 -1 -33 -4 -72 -8 -38 -3 -85 -10 -102 -15 -18 -5 -33
-8 -33 -6 0 10 -151 -50 -230 -91 -137 -70 -233 -153 -364 -315 -24 -29 -81
-133 -107 -194 -120 -280 -108 -611 33 -880 104 -200 275 -365 472 -458 151
-72 284 -101 451 -101 130 1 203 13 329 55 317 106 568 369 661 694 75 260 40
564 -91 789 -136 233 -336 397 -588 481 -70 23 -98 29 -186 41 -42 5 -169 11
-173 8z"/>
</g>
</svg>
